<svg version="1.2" baseProfile="tiny-ps" xmlns="http://www.w3.org/2000/svg" viewBox="0 0 216 206" width="216" height="206">
	<title>Layer</title>
	<style>
		tspan { white-space:pre }
		.shp0 { fill: #3f3d56 } 
		.shp1 { fill: #ffffff } 
		.shp2 { fill: #ff6584 } 
	</style>
	<path id="Layer" class="shp0" d="M103.19 26.93L101.47 5.54C101.31 5.08 101.03 4.67 100.67 4.35C100.31 4.03 99.87 3.8 99.4 3.69C98.93 3.58 98.43 3.59 97.97 3.72C97.5 3.85 97.07 4.09 96.72 4.43L75.77 24.05C74.12 23.7 72.46 23.42 70.78 23.21C69.11 22.99 67.43 22.85 65.74 22.77C64.05 22.7 62.37 22.69 60.68 22.75C58.99 22.82 57.31 22.95 55.63 23.15L55.1 2.06C54.96 1.59 54.7 1.17 54.35 0.83C54 0.48 53.57 0.24 53.1 0.11C52.63 -0.02 52.13 -0.03 51.66 0.08C51.18 0.19 50.74 0.43 50.38 0.75L33.48 19.49C9.43 32.38 -3.41 59.45 1.83 86.23C7.06 113.01 29.14 133.26 56.27 136.16C83.41 139.05 109.26 123.93 120.03 98.85C130.8 73.78 123.97 44.61 103.19 26.93L103.19 26.93Z" />
	<path id="Layer" class="shp0" d="M110.95 113.74C133.83 113.38 162.62 193.67 108.4 194.09C80.34 194.3 30.67 199.78 30.67 199.78C30.67 199.78 -7.94 141.83 9.28 105.78L110.95 113.74Z" />
	<path id="Layer" class="shp0" d="M60.62 156.17L60.62 197.77L80.07 197.77L95.5 155.41" />
	<path id="Layer" class="shp1" d="M80.07 198.53L60.62 198.53C60.52 198.53 60.42 198.51 60.33 198.48C60.24 198.44 60.16 198.38 60.09 198.31C60.02 198.24 59.96 198.16 59.92 198.07C59.88 197.97 59.86 197.87 59.86 197.78L59.86 156.17C59.86 155.97 59.94 155.78 60.09 155.64C60.23 155.49 60.42 155.41 60.62 155.41C60.82 155.41 61.02 155.49 61.16 155.64C61.3 155.78 61.38 155.97 61.38 156.17L61.38 197.02L79.54 197.02L94.79 155.15C94.86 154.97 95 154.81 95.18 154.73C95.37 154.64 95.58 154.63 95.76 154.7C95.95 154.77 96.11 154.91 96.19 155.09C96.28 155.28 96.29 155.49 96.22 155.67L80.79 198.03C80.76 198.11 80.72 198.18 80.67 198.24C80.63 198.3 80.57 198.35 80.51 198.4C80.44 198.44 80.37 198.48 80.3 198.5C80.23 198.52 80.15 198.53 80.07 198.53L80.07 198.53Z" />
	<path id="Layer" class="shp0" d="M111.05 200.53C102.24 200.53 95.13 198.16 95.13 195.23C95.13 192.29 102.24 189.92 111.05 189.92C119.86 189.92 126.97 192.29 126.97 195.23C126.97 198.16 119.86 200.53 111.05 200.53Z" />
	<path id="Layer" class="shp1" d="M103.09 190.68C103.01 190.68 102.93 190.66 102.85 190.64C102.77 190.61 102.7 190.58 102.64 190.53C102.57 190.48 102.52 190.42 102.47 190.36C102.42 190.29 102.39 190.22 102.36 190.14C102.28 189.87 94.22 162.85 113.31 154.72C113.49 154.64 113.7 154.63 113.89 154.71C114.08 154.78 114.23 154.93 114.31 155.12C114.39 155.3 114.39 155.51 114.31 155.7C114.24 155.88 114.09 156.03 113.9 156.11C96.06 163.72 103.73 189.44 103.81 189.69C103.84 189.79 103.85 189.89 103.84 189.99C103.83 190.09 103.8 190.18 103.76 190.27C103.71 190.36 103.65 190.44 103.57 190.5C103.49 190.57 103.41 190.61 103.31 190.64C103.29 190.65 103.27 190.65 103.26 190.66C103.24 190.66 103.22 190.66 103.2 190.67C103.18 190.67 103.16 190.67 103.14 190.67C103.13 190.68 103.11 190.68 103.09 190.68Z" />
	<path id="Layer" class="shp0" d="M130.1 183.75C129.99 183.59 129.92 183.43 129.82 183.27C128.99 183.3 128.17 183.33 127.34 183.37L130.1 183.75Z" />
	<path id="Layer" class="shp0" d="M212.74 159.71C206.53 149.78 191.34 147.03 182.03 154.13C177.84 157.34 175.01 161.98 171.42 165.86C169.93 167.47 168.3 168.95 166.56 170.28C164.82 171.62 162.97 172.8 161.03 173.83C159.09 174.86 157.07 175.72 154.98 176.41C152.9 177.1 150.76 177.61 148.59 177.94C142.5 178.86 136.05 178.36 130.43 180.87C124.97 183.3 120.85 190.25 123.82 195.27C144.77 194.5 165.72 193.73 186.66 192.96C192.69 192.74 198.93 192.46 204.32 189.75C214.78 184.5 218.95 169.63 212.74 159.71Z" />
	<path id="Layer" class="shp1" d="M58.09 130.96C55.95 130.98 53.81 130.89 51.67 130.69C49.54 130.49 47.41 130.18 45.31 129.76C43.21 129.34 41.13 128.81 39.08 128.18C37.03 127.54 35.02 126.8 33.05 125.96C16.52 118.79 8.95 106.69 8.63 106.17C8.53 106 8.5 105.8 8.55 105.6C8.59 105.41 8.71 105.24 8.88 105.14C9.06 105.03 9.26 105 9.46 105.04C9.65 105.09 9.82 105.21 9.92 105.38C11.41 107.49 13.05 109.5 14.81 111.39C16.58 113.27 18.47 115.03 20.48 116.66C22.49 118.28 24.61 119.76 26.83 121.09C29.04 122.42 31.35 123.6 33.73 124.61C48.61 131.04 74.02 134.26 110.57 113.08C110.75 112.98 110.95 112.95 111.15 113.01C111.34 113.06 111.51 113.18 111.61 113.36C111.71 113.53 111.74 113.74 111.69 113.93C111.63 114.13 111.51 114.3 111.33 114.4C89.88 126.83 72.16 130.96 58.09 130.96Z" />
	<path id="Layer" class="shp1" d="M61.38 92.47C60.68 92.47 59.99 92.34 59.35 92.07C58.71 91.8 58.12 91.41 57.63 90.92C57.14 90.43 56.75 89.84 56.48 89.2C56.21 88.55 56.07 87.86 56.07 87.17C56.07 86.97 56.15 86.77 56.3 86.63C56.44 86.49 56.63 86.41 56.83 86.41C57.03 86.41 57.23 86.49 57.37 86.63C57.51 86.77 57.59 86.97 57.59 87.17C57.59 88.17 57.99 89.14 58.7 89.85C59.41 90.56 60.38 90.96 61.38 90.96C62.39 90.96 63.35 90.56 64.06 89.85C64.77 89.14 65.17 88.17 65.17 87.17C65.17 86.97 65.25 86.77 65.39 86.63C65.54 86.49 65.73 86.41 65.93 86.41C66.13 86.41 66.33 86.49 66.47 86.63C66.61 86.77 66.69 86.97 66.69 87.17C66.69 87.86 66.55 88.55 66.28 89.2C66.02 89.84 65.63 90.43 65.13 90.92C64.64 91.41 64.06 91.8 63.41 92.07C62.77 92.34 62.08 92.47 61.38 92.47L61.38 92.47Z" />
	<path id="Layer" class="shp1" d="M54.18 195.35C54.1 195.35 54.02 195.34 53.94 195.32C53.87 195.29 53.79 195.25 53.73 195.21C53.67 195.16 53.61 195.1 53.56 195.04C53.52 194.97 53.48 194.9 53.45 194.83L41.32 156.78C41.26 156.59 41.28 156.38 41.37 156.2C41.46 156.02 41.62 155.89 41.81 155.83C42.01 155.77 42.21 155.78 42.39 155.88C42.57 155.97 42.71 156.13 42.77 156.32L54.9 194.37C54.94 194.48 54.94 194.6 54.93 194.72C54.91 194.83 54.86 194.95 54.79 195.04C54.72 195.14 54.63 195.22 54.52 195.27C54.41 195.33 54.3 195.35 54.18 195.35L54.18 195.35Z" />
	<path id="Layer" class="shp0" d="M70.1 205.84C61.3 205.84 54.18 203.47 54.18 200.53C54.18 197.6 61.3 195.23 70.1 195.23C78.91 195.23 86.03 197.6 86.03 200.53C86.03 203.47 78.91 205.84 70.1 205.84Z" />
	<path id="Layer" class="shp0" d="M44.32 205.08C35.51 205.08 28.39 202.71 28.39 199.78C28.39 196.84 35.51 194.47 44.32 194.47C53.13 194.47 60.24 196.84 60.24 199.78C60.24 202.71 53.13 205.08 44.32 205.08Z" />
	<path id="Layer" class="shp1" d="M61.76 80.02C58.41 80.02 55.69 78.98 55.69 77.69C55.69 76.4 58.41 75.35 61.76 75.35C65.12 75.35 67.83 76.4 67.83 77.69C67.83 78.98 65.12 80.02 61.76 80.02Z" />
	<path id="Layer" class="shp1" d="M20.97 77.86C22.71 75.78 24.88 74.11 27.33 72.96C29.78 71.81 32.46 71.22 35.17 71.22C37.87 71.22 40.55 71.81 43 72.96C45.45 74.11 47.62 75.78 49.36 77.86C55.38 72.12 57.34 63.32 54.34 55.56C51.33 47.81 43.95 42.63 35.64 42.44C27.33 42.24 19.72 47.08 16.36 54.68C13 62.29 14.55 71.17 20.29 77.18C20.51 77.41 20.74 77.64 20.97 77.86Z" />
	<path id="Layer" class="shp1" d="M76.48 77.86C78.21 75.78 80.38 74.11 82.84 72.96C85.29 71.81 87.96 71.22 90.67 71.22C93.38 71.22 96.05 71.81 98.51 72.96C100.96 74.11 103.13 75.78 104.87 77.86C110.88 72.12 112.85 63.32 109.84 55.56C106.84 47.81 99.46 42.63 91.15 42.44C82.84 42.24 75.23 47.08 71.87 54.68C68.51 62.29 70.06 71.17 75.8 77.18C76.02 77.41 76.25 77.64 76.48 77.86Z" />
	<path id="Layer" class="shp0" d="M26.15 72.06C22.24 72.06 19.08 68.9 19.08 64.99C19.08 61.08 22.24 57.92 26.15 57.92C30.06 57.92 33.22 61.08 33.22 64.99C33.22 68.9 30.06 72.06 26.15 72.06Z" />
	<path id="Layer" class="shp0" d="M81.66 72.06C77.75 72.06 74.59 68.9 74.59 64.99C74.59 61.08 77.75 57.92 81.66 57.92C85.57 57.92 88.73 61.08 88.73 64.99C88.73 68.9 85.57 72.06 81.66 72.06Z" />
	<path id="Layer" class="shp2" d="M30.33 95.82C26.91 95.82 24.14 93.05 24.14 89.63C24.14 86.2 26.91 83.43 30.33 83.43C33.76 83.43 36.53 86.2 36.53 89.63C36.53 93.05 33.76 95.82 30.33 95.82Z" />
	<path id="Layer" class="shp2" d="M95.33 96.82C91.91 96.82 89.14 94.05 89.14 90.63C89.14 87.2 91.91 84.43 95.33 84.43C98.76 84.43 101.53 87.2 101.53 90.63C101.53 94.05 98.76 96.82 95.33 96.82Z" />
</svg>